<svg id="Layer_1" data-name="Layer 1" xmlns="http://www.w3.org/2000/svg" viewBox="0 0 841.89 595.28"><defs><style>.cls-1{fill:#fff;}.cls-2{fill:#ff1400;}.cls-3{fill:#0d0d96;}</style></defs><path class="cls-1" d="M653.59,303.71c0,105.72-85.71,191.43-191.44,191.43S270.71,409.43,270.71,303.71s85.71-191.44,191.44-191.44S653.59,198,653.59,303.71"/><path d="M462.15,115.94c103.67,0,187.74,84,187.76,187.66v.09C650,407.36,566,491.45,462.3,491.5h-.15c-103.67,0-187.74-84-187.77-187.66v-.13C274.35,200,358.36,116,462,115.94h.12Zm0-7.32c-107.71,0-195.09,87.38-195.09,195.09S354.44,498.8,462.15,498.8s195.09-87.38,195.09-195.09S569.86,108.62,462.15,108.62"/><path d="M473.51,284.79h12.06a7.45,7.45,0,0,1,7.43,7.48c0,5-1.9,7.64-9.16,10.66L473.51,307Zm-149,0h12.06a7.45,7.45,0,0,1,7.43,7.48c0,5-1.92,7.64-9.17,10.66L324.55,307ZM449.38,267.3v71.14h24.13V325.18q13.83-4.51,27.21-10.31c16.85-7.68,17.57-17.28,17.57-25.27,0-9.9-7.38-22.3-27.94-22.3h-41Zm-73.16,0v71.14h62.71V320.91H400.35v-9.42h30.3V294h-30.3v-9.23h37.9V267.28Zm-75.8,0v71.14h24.13V325.18q13.83-4.51,27.2-10.31c16.86-7.68,17.58-17.28,17.58-25.27,0-9.9-7.39-22.3-27.94-22.3h-41ZM623.05,266l-24.11,8.85v63.62h24.12Zm-66.44-.36c-22.26,0-33.9,9.43-33.9,23.89,0,4.61,2.86,11.21,7.68,14.32,8.42,5.47,15.49,6.28,25.17,8.64,5.56,1.37,11.58,2.93,11.58,6.48,0,2.95-3,5.14-10.88,5.14-15.64,0-18.72-8.24-18.72-8.24l-20,7.35c4.24,13.48,25,18.11,38.74,18.11,14.69,0,23.17-3.13,28.58-8.3,6-5.67,6.55-11.17,6.55-16.39,0-4.61-1.81-10.74-10.66-15.86-6.46-3.71-19.48-6-25.16-7.19-2.14-.48-9-1.48-9-5.54,0-3,4.3-4.66,10.07-4.66,11.4,0,13.23,7.7,13.23,7.7l20.1-7.39c-3.13-14.11-19.66-18.06-33.33-18.06"/><path class="cls-2" d="M462.15,129A174.73,174.73,0,0,0,301.88,234.42c.63.22,34.71,12.28,69.12,12.28,53.76,0,118.22-22,187.68-22,35.17,0,61.2,8.71,63.85,9.64A174.75,174.75,0,0,0,462.15,129"/><path class="cls-3" d="M462.24,478.48A174.76,174.76,0,0,0,622.53,373.05c-.63-.24-34.73-12.3-69.12-12.3-53.77,0-118.22,22-187.7,22-35.16,0-61.18-8.71-63.85-9.63A174.74,174.74,0,0,0,462.24,478.48"/></svg>