<?xml version="1.0" encoding="UTF-8"?>
<svg id="Layer_1" data-name="Layer 1" xmlns="http://www.w3.org/2000/svg" xmlns:xlink="http://www.w3.org/1999/xlink" viewBox="0 0 841.89 595.28">
  <defs>
    <style>
      .cls-1 {
        clip-path: url(#clippath-2);
      }

      .cls-2 {
        fill: none;
      }

      .cls-2, .cls-3 {
        stroke-width: 0px;
      }

      .cls-4 {
        clip-path: url(#clippath-1);
      }

      .cls-3 {
        fill: #cb9731;
      }

      .cls-5 {
        clip-path: url(#clippath);
      }
    </style>
    <clipPath id="clippath">
      <rect class="cls-2" x="247.59" y="44.31" width="373.99" height="465.95"/>
    </clipPath>
    <clipPath id="clippath-1">
      <rect class="cls-2" x="247.59" y="44.31" width="373.99" height="465.95"/>
    </clipPath>
    <clipPath id="clippath-2">
      <rect class="cls-2" x="247.59" y="44.31" width="373.99" height="465.95"/>
    </clipPath>
  </defs>
  <polygon class="cls-3" points="617.68 336.12 617.68 336.23 617.61 336.23 617.61 410.78 585.55 410.78 585.55 410.87 585.49 410.87 585.49 414.77 617.61 414.77 620.67 414.77 621.5 414.77 621.5 414.68 621.58 414.68 621.58 336.12 617.68 336.12"/>
  <polygon class="cls-3" points="247.59 336.13 247.59 410.78 247.59 414.68 247.61 414.68 247.61 414.77 251.5 414.77 285.99 414.77 285.99 414.68 285.99 410.78 251.5 410.78 251.5 336.22 251.49 336.22 251.49 336.13 247.59 336.13"/>
  <g class="cls-5">
    <path class="cls-3" d="M421.29,64.67l10.3.02v113.77c-3.77.27-7.14.57-10.33.95l.03-114.74ZM400.9,64.71l-.05,119.2c-14.72,5.53-23.76,15.78-43.22,35.03-19.22,19-46.82,14.49-46.82,14.49,0,0,32.98,13.51,62.04-10.14,9.78-7.93,19.19-13.35,27.99-17.07l-.02,41.28c18.87-12.59,45.26-13.87,77.9-3.95,59.19,17.97,82.67-20.64,90.17-37.78-26.22,39.61-61.82,35.69-85.93,23.05-21.47-11.22-46.45-11.67-61.71-8.42l.02-20.32c15.07-2.73,26.3-.94,30.64-.83l.03-134.49,15.59-20.39-81.81-.07,15.18,20.4Z"/>
  </g>
  <polygon class="cls-3" points="294.2 279.04 283.64 279.04 283.64 380.54 338.13 380.54 338.13 371.66 294.2 371.66 294.2 279.04"/>
  <polygon class="cls-3" points="386.01 332.08 366.44 279.04 354.74 279.04 380.66 344.77 380.66 380.54 391.21 380.54 391.21 344.77 417.13 279.04 405.44 279.04 386.01 332.08"/>
  <path class="cls-3" d="M437.39,380.54h11.41l9.01-27.59h30.85l9,27.59h11.41l-35.9-101.51-35.77,101.51ZM460.35,344.75l12.82-37.87,12.95,37.87h-25.76Z"/>
  <polygon class="cls-3" points="574.96 279.04 574.96 352.95 574.54 352.95 543.7 279.04 531.46 279.04 531.46 380.54 542 380.54 542 299.03 542.3 298.74 575.52 380.54 585.52 380.54 585.52 279.04 574.96 279.04"/>
  <g class="cls-4">
    <path class="cls-3" d="M332.56,435.64c0-1.52-.57-2.58-1.7-3.16-1.14-.59-2.66-.88-4.56-.88h-4.92v8.4h4.97c.69,0,1.4-.06,2.15-.18.74-.12,1.42-.34,2.02-.65.61-.31,1.1-.75,1.48-1.32.38-.57.57-1.31.57-2.2M331.37,421.08c0-1.25-.47-2.16-1.42-2.72-.95-.57-2.36-.86-4.22-.86h-4.35v7.56h4.76c1.66,0,2.94-.34,3.86-1.01.91-.67,1.37-1.66,1.37-2.98M341.42,436.47c0,2-.4,3.69-1.19,5.06-.79,1.36-1.85,2.46-3.16,3.29-1.31.83-2.8,1.43-4.48,1.79-1.67.36-3.39.54-5.15.54h-14.59v-36.69h14.59c1.42,0,2.87.14,4.35.44,1.48.29,2.83.8,4.03,1.5,1.21.71,2.2,1.67,2.95,2.88.76,1.21,1.14,2.74,1.14,4.61,0,2.04-.55,3.72-1.65,5.06-1.11,1.33-2.55,2.29-4.35,2.87v.1c1.03.17,2.01.5,2.92.96.91.47,1.71,1.06,2.38,1.79.68.72,1.21,1.57,1.61,2.54.39.97.6,2.06.6,3.26"/>
    <path class="cls-3" d="M377.2,439.34c-.74,1.81-1.8,3.37-3.18,4.66-1.38,1.3-3.04,2.31-4.99,3.03-1.95.73-4.11,1.09-6.49,1.09s-4.59-.36-6.52-1.09c-1.94-.73-3.57-1.73-4.92-3.03-1.35-1.29-2.38-2.85-3.11-4.66-.72-1.81-1.09-3.82-1.09-6.04v-22.85h8.8v22.13c0,1,.13,1.95.39,2.85.26.9.66,1.7,1.19,2.41.54.71,1.24,1.27,2.13,1.69.88.41,1.94.62,3.18.62s2.3-.21,3.18-.62c.88-.42,1.6-.98,2.15-1.69.55-.71.95-1.51,1.19-2.41.24-.9.36-1.85.36-2.85v-22.13h8.85v22.85c0,2.21-.37,4.22-1.12,6.04"/>
    <path class="cls-3" d="M404.82,419.99c-.76-.96-1.75-1.73-2.98-2.31-1.22-.57-2.41-.86-3.55-.86-.58,0-1.18.05-1.79.16-.6.1-1.14.3-1.63.6-.49.29-.89.68-1.22,1.14-.32.47-.49,1.06-.49,1.79,0,.62.13,1.14.39,1.55.25.42.64.77,1.14,1.09.5.31,1.09.6,1.79.86.69.26,1.47.53,2.33.8,1.24.42,2.54.87,3.88,1.38s2.57,1.17,3.67,1.99c1.1.83,2.02,1.86,2.74,3.09.72,1.22,1.09,2.76,1.09,4.59,0,2.1-.39,3.93-1.17,5.47-.77,1.54-1.82,2.81-3.13,3.81-1.31,1-2.81,1.74-4.5,2.23-1.69.48-3.43.72-5.23.72-2.62,0-5.16-.46-7.61-1.37-2.45-.92-4.48-2.22-6.11-3.92l5.8-5.9c.9,1.1,2.07,2.03,3.54,2.77,1.47.74,2.92,1.12,4.37,1.12.66,0,1.29-.07,1.91-.21.62-.14,1.17-.36,1.64-.68.46-.31.83-.72,1.11-1.24s.42-1.14.42-1.87-.17-1.28-.52-1.76c-.34-.49-.84-.92-1.47-1.32-.64-.39-1.43-.76-2.38-1.09-.95-.33-2.03-.68-3.24-1.06-1.17-.38-2.32-.83-3.44-1.35s-2.12-1.18-3-1.99c-.88-.81-1.59-1.8-2.13-2.95-.53-1.16-.8-2.57-.8-4.22,0-2.04.41-3.78,1.24-5.23.83-1.45,1.91-2.65,3.26-3.58,1.35-.94,2.87-1.62,4.55-2.05,1.69-.43,3.4-.65,5.12-.65,2.07,0,4.18.38,6.34,1.14,2.16.76,4.04,1.88,5.67,3.37l-5.64,5.96Z"/>
  </g>
  <rect class="cls-3" x="416.05" y="410.45" width="8.9" height="36.69"/>
  <polygon class="cls-3" points="455.8 447.14 441.05 423.15 440.89 423.15 441.1 447.14 432.51 447.14 432.51 410.45 442.6 410.45 457.3 434.4 457.46 434.4 457.25 410.45 465.84 410.45 465.84 447.14 455.8 447.14"/>
  <polygon class="cls-3" points="473.4 447.14 473.4 410.45 498.03 410.45 498.03 417.92 481.94 417.92 481.94 424.86 497.15 424.86 497.15 431.96 481.94 431.96 481.94 439.58 498.96 439.58 498.96 447.14 473.4 447.14"/>
  <g class="cls-1">
    <path class="cls-3" d="M524.17,419.99c-.76-.96-1.75-1.73-2.98-2.31-1.22-.57-2.41-.86-3.55-.86-.58,0-1.18.05-1.79.16-.6.1-1.14.3-1.63.6-.49.29-.89.68-1.21,1.14-.33.47-.5,1.06-.5,1.79,0,.62.13,1.14.39,1.55.25.42.64.77,1.14,1.09.5.31,1.09.6,1.79.86.69.26,1.47.53,2.33.8,1.24.42,2.54.87,3.88,1.38,1.35.5,2.57,1.17,3.67,1.99,1.1.83,2.02,1.86,2.74,3.09.72,1.22,1.09,2.76,1.09,4.59,0,2.1-.39,3.93-1.17,5.47-.77,1.54-1.82,2.81-3.13,3.81-1.31,1-2.81,1.74-4.5,2.23-1.69.48-3.43.72-5.23.72-2.62,0-5.16-.46-7.61-1.37-2.45-.92-4.48-2.22-6.11-3.92l5.8-5.9c.9,1.1,2.07,2.03,3.54,2.77,1.47.74,2.92,1.12,4.37,1.12.66,0,1.29-.07,1.91-.21.62-.14,1.17-.36,1.64-.68.46-.31.83-.72,1.11-1.24s.42-1.14.42-1.87-.17-1.28-.52-1.76c-.34-.49-.84-.92-1.47-1.32-.64-.39-1.43-.76-2.38-1.09-.95-.33-2.03-.68-3.24-1.06-1.17-.38-2.32-.83-3.44-1.35s-2.12-1.18-3-1.99c-.88-.81-1.59-1.8-2.13-2.95-.53-1.16-.8-2.57-.8-4.22,0-2.04.41-3.78,1.24-5.23.83-1.45,1.91-2.65,3.26-3.58,1.35-.94,2.87-1.62,4.55-2.05,1.69-.43,3.4-.65,5.12-.65,2.07,0,4.18.38,6.34,1.14,2.16.76,4.04,1.88,5.67,3.37l-5.64,5.96Z"/>
    <path class="cls-3" d="M554.76,419.99c-.76-.96-1.75-1.73-2.98-2.31-1.22-.57-2.41-.86-3.55-.86-.58,0-1.18.05-1.79.16-.6.1-1.14.3-1.63.6-.49.29-.89.68-1.21,1.14-.33.47-.5,1.06-.5,1.79,0,.62.13,1.14.39,1.55.25.42.64.77,1.14,1.09.5.31,1.09.6,1.79.86.69.26,1.47.53,2.33.8,1.24.42,2.54.87,3.88,1.38,1.35.5,2.57,1.17,3.67,1.99,1.1.83,2.02,1.86,2.74,3.09.72,1.22,1.09,2.76,1.09,4.59,0,2.1-.39,3.93-1.17,5.47-.77,1.54-1.82,2.81-3.13,3.81-1.31,1-2.81,1.74-4.5,2.23-1.69.48-3.43.72-5.23.72-2.62,0-5.16-.46-7.61-1.37-2.45-.92-4.48-2.22-6.11-3.92l5.8-5.9c.9,1.1,2.07,2.03,3.54,2.77,1.47.74,2.92,1.12,4.37,1.12.66,0,1.29-.07,1.91-.21.62-.14,1.17-.36,1.64-.68.46-.31.83-.72,1.11-1.24s.42-1.14.42-1.87-.17-1.28-.52-1.76c-.34-.49-.84-.92-1.47-1.32-.64-.39-1.43-.76-2.38-1.09-.95-.33-2.03-.68-3.24-1.06-1.17-.38-2.32-.83-3.44-1.35s-2.12-1.18-3-1.99c-.88-.81-1.59-1.8-2.13-2.95-.53-1.16-.8-2.57-.8-4.22,0-2.04.41-3.78,1.24-5.23.83-1.45,1.91-2.65,3.26-3.58,1.35-.94,2.87-1.62,4.55-2.05,1.69-.43,3.4-.65,5.12-.65,2.07,0,4.18.38,6.34,1.14,2.16.76,4.04,1.88,5.67,3.37l-5.64,5.96Z"/>
    <path class="cls-3" d="M377.26,479.27c-1.28-1.35-2.8-2.39-4.55-3.14-1.76-.74-3.78-1.12-6.06-1.12s-4.46.43-6.34,1.3c-1.88.86-3.47,2.02-4.79,3.49-1.31,1.47-2.32,3.17-3.02,5.1-.71,1.93-1.06,3.96-1.06,6.1s.35,4.18,1.06,6.11c.7,1.93,1.72,3.62,3.02,5.07,1.32,1.45,2.91,2.61,4.79,3.47,1.88.86,3.99,1.29,6.34,1.29,2.07,0,3.96-.22,5.69-.67,1.72-.45,3.12-1.02,4.19-1.71v-11.15h-8.54v-3.32h12.27v16.58c-2,1.21-4.16,2.11-6.47,2.7-2.31.59-4.71.88-7.19.88-2.76,0-5.32-.49-7.66-1.45s-4.37-2.31-6.06-4.02c-1.69-1.71-3.01-3.74-3.96-6.09-.95-2.35-1.42-4.92-1.42-7.72s.49-5.37,1.45-7.72c.96-2.35,2.31-4.38,4.01-6.09,1.71-1.71,3.73-3.05,6.06-4.02,2.33-.97,4.86-1.46,7.59-1.46,2.93,0,5.48.44,7.66,1.32,2.18.88,4.04,2.1,5.59,3.66l-2.59,2.59Z"/>
    <path class="cls-3" d="M393.51,488.96h6.47c3,0,5.31-.54,6.93-1.63,1.62-1.09,2.43-2.72,2.43-4.9,0-1.21-.23-2.23-.67-3.06-.45-.83-1.07-1.5-1.87-2.02-.79-.52-1.76-.9-2.89-1.14-1.14-.24-2.4-.36-3.78-.36h-6.63v13.11ZM393.51,509.33h-3.73v-36.69h10.76c1.8,0,3.46.17,5,.52,1.53.35,2.86.91,3.98,1.68,1.12.78,1.99,1.79,2.62,3.03.62,1.24.93,2.76.93,4.56,0,1.35-.24,2.58-.72,3.68-.49,1.11-1.14,2.06-1.97,2.88-.83.81-1.81,1.46-2.95,1.94-1.14.49-2.38.8-3.73.93l10.71,17.47h-4.55l-10.15-17.15h-6.21v17.15Z"/>
    <path class="cls-3" d="M453.08,491.01c0-2.14-.34-4.17-1.03-6.1-.69-1.93-1.69-3.63-3-5.1-1.31-1.47-2.91-2.63-4.79-3.49-1.88-.87-3.99-1.3-6.34-1.3s-4.46.43-6.34,1.3c-1.88.86-3.47,2.02-4.78,3.49s-2.31,3.17-3,5.1c-.69,1.93-1.03,3.96-1.03,6.1s.35,4.18,1.03,6.11c.69,1.94,1.69,3.62,3,5.07,1.31,1.44,2.91,2.6,4.78,3.47,1.88.86,4,1.29,6.34,1.29s4.45-.43,6.34-1.29c1.88-.87,3.48-2.02,4.79-3.47,1.31-1.45,2.31-3.14,3-5.07.69-1.93,1.03-3.96,1.03-6.11M457.01,490.98c0,2.8-.49,5.37-1.45,7.72-.96,2.35-2.3,4.38-4.01,6.09-1.71,1.71-3.73,3.05-6.06,4.02s-4.86,1.45-7.58,1.45-5.25-.49-7.59-1.45c-2.33-.96-4.34-2.31-6.06-4.02-1.7-1.71-3.04-3.74-4.01-6.09-.96-2.35-1.45-4.92-1.45-7.72s.49-5.37,1.45-7.72c.96-2.35,2.31-4.38,4.01-6.09,1.71-1.71,3.73-3.05,6.06-4.02,2.33-.97,4.86-1.46,7.59-1.46s5.25.49,7.58,1.46c2.33.96,4.34,2.31,6.06,4.02,1.71,1.71,3.04,3.74,4.01,6.09.96,2.35,1.45,4.92,1.45,7.72"/>
    <path class="cls-3" d="M478.29,510.26c-2.76,0-5.02-.47-6.78-1.42-1.76-.95-3.16-2.16-4.19-3.61-1.03-1.45-1.75-3.03-2.15-4.74-.4-1.71-.6-3.33-.6-4.85v-23.01h3.73v22.59c0,1.48.17,2.93.52,4.33.34,1.4.91,2.65,1.68,3.73.77,1.09,1.8,1.97,3.08,2.64,1.28.68,2.84,1.01,4.71,1.01s3.43-.34,4.71-1.01c1.28-.67,2.31-1.55,3.08-2.64.77-1.09,1.33-2.33,1.68-3.73.35-1.4.52-2.84.52-4.33v-22.59h3.73v23.01c0,1.52-.2,3.14-.6,4.85-.4,1.71-1.12,3.29-2.15,4.74-1.03,1.45-2.44,2.65-4.22,3.61-1.78.95-4.03,1.42-6.75,1.42"/>
    <path class="cls-3" d="M505.25,489.12h6.32c2.93,0,5.16-.57,6.67-1.71,1.52-1.14,2.28-2.8,2.28-4.97s-.79-3.95-2.36-5c-1.57-1.06-3.77-1.58-6.6-1.58h-6.32v13.27ZM501.52,472.64h10.35c1.86,0,3.55.2,5.07.6,1.51.4,2.82,1.01,3.91,1.81,1.09.81,1.92,1.83,2.51,3.06.59,1.23.88,2.67.88,4.33s-.31,3.1-.91,4.33c-.61,1.22-1.45,2.25-2.54,3.06-1.09.81-2.4,1.43-3.93,1.84-1.54.41-3.24.62-5.1.62h-6.52v17.05h-3.73v-36.69Z"/>
  </g>
</svg>