<svg id="Layer_1" data-name="Layer 1" xmlns="http://www.w3.org/2000/svg" viewBox="0 0 612 234.29"><defs><style>.cls-1{fill:#2d2e83;}.cls-2{fill:#f7a51e;}</style></defs><path class="cls-1" d="M317.46,164.74a3.53,3.53,0,0,0-1.61-1.43,5.19,5.19,0,0,0-2.09-.44,6.06,6.06,0,0,0-1.58.2,4.57,4.57,0,0,0-1.39.6,3.08,3.08,0,0,0-1,1.07,3.2,3.2,0,0,0-.37,1.55,3.09,3.09,0,0,0,.22,1.22,2.48,2.48,0,0,0,.7,1,5,5,0,0,0,1.32.81,18.07,18.07,0,0,0,2,.74q1.19.38,2.28.81a7.64,7.64,0,0,1,1.95,1.09,4.85,4.85,0,0,1,1.35,1.66,6.29,6.29,0,0,1-.1,5.14,5.38,5.38,0,0,1-1.59,1.85,6.9,6.9,0,0,1-2.28,1.1,9.89,9.89,0,0,1-2.67.36,10.8,10.8,0,0,1-1.78-.16,9,9,0,0,1-1.7-.49,7.05,7.05,0,0,1-1.54-.86,5.5,5.5,0,0,1-1.23-1.31l2.07-1.7a4.24,4.24,0,0,0,1.83,1.7,5.69,5.69,0,0,0,2.5.57,5.36,5.36,0,0,0,1.56-.23,4.89,4.89,0,0,0,1.42-.67,3.76,3.76,0,0,0,1-1.11,3,3,0,0,0,.4-1.53,3.3,3.3,0,0,0-.31-1.54,3,3,0,0,0-1-1,7.36,7.36,0,0,0-1.66-.78l-2.36-.8a14.62,14.62,0,0,1-2-.8,6.05,6.05,0,0,1-1.59-1.09,4.7,4.7,0,0,1-1.06-1.55,5.52,5.52,0,0,1-.39-2.18A5.24,5.24,0,0,1,309,162.1a7.06,7.06,0,0,1,2.21-1.11,9.14,9.14,0,0,1,2.58-.37,9,9,0,0,1,3.14.53,6.3,6.3,0,0,1,2.54,1.86Z"/><path class="cls-1" d="M322.59,174.78a7.46,7.46,0,0,1,.54-2.88,7.2,7.2,0,0,1,1.49-2.23,6.74,6.74,0,0,1,2.27-1.45,8.18,8.18,0,0,1,5.74,0,6.7,6.7,0,0,1,2.26,1.45,6.87,6.87,0,0,1,1.49,2.23,7.82,7.82,0,0,1,0,5.76,6.66,6.66,0,0,1-1.49,2.23,6.57,6.57,0,0,1-2.26,1.46,8.18,8.18,0,0,1-5.74,0,6.62,6.62,0,0,1-2.27-1.46,7,7,0,0,1-1.49-2.23A7.39,7.39,0,0,1,322.59,174.78Zm2.41,0a5.79,5.79,0,0,0,.33,2,4.53,4.53,0,0,0,2.46,2.64,5.15,5.15,0,0,0,3.93,0,4.63,4.63,0,0,0,1.51-1.06,4.76,4.76,0,0,0,.95-1.58,5.91,5.91,0,0,0,0-3.95,4.76,4.76,0,0,0-.95-1.58,4.66,4.66,0,0,0-1.51-1.07,5.15,5.15,0,0,0-3.93,0,4.59,4.59,0,0,0-2.46,2.65A5.74,5.74,0,0,0,325,174.78Z"/><path class="cls-1" d="M341.54,170h-2.93v-1.9h2.93v-3a10,10,0,0,1,.23-2.27,4.61,4.61,0,0,1,.79-1.77,3.78,3.78,0,0,1,1.47-1.16,5.45,5.45,0,0,1,2.27-.42,5.11,5.11,0,0,1,.92.09,2.59,2.59,0,0,1,.8.26l-.32,2a4.52,4.52,0,0,0-1.51-.29,2.54,2.54,0,0,0-1.35.31,1.92,1.92,0,0,0-.74.83,3.66,3.66,0,0,0-.28,1.28c0,.5,0,1,0,1.61v2.54h3.27V170h-3.27v11.57h-2.24Z"/><path class="cls-1" d="M356.76,170h-4v6.73q0,.66,0,1.23a2.66,2.66,0,0,0,.23,1,1.66,1.66,0,0,0,.6.66,2.26,2.26,0,0,0,1.15.24,4.94,4.94,0,0,0,1-.11,4.08,4.08,0,0,0,1-.35l.09,2a5.46,5.46,0,0,1-1.28.37,7.91,7.91,0,0,1-1.33.12,4.87,4.87,0,0,1-1.93-.32,2.54,2.54,0,0,1-1.11-.89,3.39,3.39,0,0,1-.54-1.43,13.41,13.41,0,0,1-.12-1.88V170h-2.93v-1.9h2.93v-3.83h2.23v3.83h4Z"/><path class="cls-1" d="M373.9,181.52h-2.2l-3.82-10.36h-.05l-3.39,10.36h-2.29l-4.35-13.47h2.46l3.06,10.36h.06l3.47-10.36h2.35l3.53,10.36h0l3.05-10.36h2.4Z"/><path class="cls-1" d="M380.58,169.77a6.23,6.23,0,0,1,2.46-1.56,8.41,8.41,0,0,1,2.88-.51,5.68,5.68,0,0,1,4.3,1.41,6.13,6.13,0,0,1,1.31,4.29v5.79a9.84,9.84,0,0,0,.07,1.19c0,.42.08.79.13,1.14h-2.15a4.6,4.6,0,0,1-.12-1c0-.38,0-.71,0-1h-.05a5.22,5.22,0,0,1-1.77,1.69,5,5,0,0,1-2.65.67,7,7,0,0,1-1.93-.26,4.85,4.85,0,0,1-1.58-.77,3.72,3.72,0,0,1-1.08-1.25,3.68,3.68,0,0,1-.4-1.73,3.79,3.79,0,0,1,.86-2.62,5.27,5.27,0,0,1,2.14-1.41,10.49,10.49,0,0,1,2.75-.57c1-.08,1.88-.12,2.71-.12h.86v-.4a2.8,2.8,0,0,0-.87-2.22,3.74,3.74,0,0,0-2.46-.75,6.24,6.24,0,0,0-2.13.37,5,5,0,0,0-1.85,1.1Zm6.48,5.27a7.88,7.88,0,0,0-3.41.61,2,2,0,0,0-1.26,2,1.94,1.94,0,0,0,.85,1.8,3.81,3.81,0,0,0,2.1.53,4.14,4.14,0,0,0,1.71-.33,3.65,3.65,0,0,0,1.22-.87,3.87,3.87,0,0,0,.74-1.28,5.08,5.08,0,0,0,.29-1.57V175Z"/><path class="cls-1" d="M395.64,171.24c0-.61,0-1.19-.06-1.72s-.06-1-.06-1.47h2.13c0,.36,0,.73,0,1.09s0,.74,0,1.12h.06a3.87,3.87,0,0,1,.64-.95,5,5,0,0,1,1-.82,5.43,5.43,0,0,1,2.84-.79l.46,0a2.09,2.09,0,0,1,.46.12l-.15,2.27a4.3,4.3,0,0,0-1.2-.17,3.4,3.4,0,0,0-3,1.34,6.33,6.33,0,0,0-.93,3.67v6.56h-2.23Z"/><path class="cls-1" d="M417.19,179.07a6.82,6.82,0,0,1-2.64,2.18,8.33,8.33,0,0,1-3.32.62,6.83,6.83,0,0,1-2.84-.57,6.2,6.2,0,0,1-2.13-1.51,6.43,6.43,0,0,1-1.35-2.24,8.18,8.18,0,0,1-.48-2.77,7.82,7.82,0,0,1,.52-2.86,6.37,6.37,0,0,1,3.61-3.7,7.32,7.32,0,0,1,2.75-.52,6.82,6.82,0,0,1,2.59.48,5.52,5.52,0,0,1,2,1.38,6.09,6.09,0,0,1,1.3,2.22,8.82,8.82,0,0,1,.46,3v.72H406.84a4.92,4.92,0,0,0,1.35,3,4.15,4.15,0,0,0,1.35.94,4.08,4.08,0,0,0,1.69.34,5.31,5.31,0,0,0,2.47-.52,5.56,5.56,0,0,0,1.8-1.52Zm-1.92-5.5a3.9,3.9,0,0,0-1.11-2.76,4,4,0,0,0-2.93-1,4.34,4.34,0,0,0-3,1,4.41,4.41,0,0,0-1.38,2.76Z"/><path class="cls-1" d="M439.15,164.74a3.56,3.56,0,0,0-1.6-1.43,5.24,5.24,0,0,0-2.1-.44,6,6,0,0,0-1.57.2,4.47,4.47,0,0,0-1.39.6,3,3,0,0,0-1,1.07,3.1,3.1,0,0,0-.38,1.55,3.28,3.28,0,0,0,.22,1.22,2.58,2.58,0,0,0,.7,1,5.17,5.17,0,0,0,1.32.81,19.08,19.08,0,0,0,2,.74q1.17.38,2.28.81a8,8,0,0,1,1.95,1.09,4.94,4.94,0,0,1,1.34,1.66,5.65,5.65,0,0,1-1.69,7,7,7,0,0,1-2.27,1.1,10,10,0,0,1-2.67.36,10.61,10.61,0,0,1-1.78-.16,9.05,9.05,0,0,1-1.71-.49,7.22,7.22,0,0,1-1.53-.86,5.13,5.13,0,0,1-1.23-1.31l2.06-1.7a4.26,4.26,0,0,0,1.84,1.7,5.61,5.61,0,0,0,2.49.57,5.36,5.36,0,0,0,1.56-.23,4.77,4.77,0,0,0,1.42-.67,3.8,3.8,0,0,0,1-1.11,3,3,0,0,0,.39-1.53,3.3,3.3,0,0,0-.31-1.54,2.87,2.87,0,0,0-1-1,7.36,7.36,0,0,0-1.66-.78l-2.35-.8a14.77,14.77,0,0,1-2-.8,6.05,6.05,0,0,1-1.59-1.09,4.85,4.85,0,0,1-1.06-1.55,5.52,5.52,0,0,1-.38-2.18,5.24,5.24,0,0,1,2.12-4.39,6.91,6.91,0,0,1,2.2-1.11,9.25,9.25,0,0,1,2.58-.37,9,9,0,0,1,3.14.53,6.24,6.24,0,0,1,2.54,1.86Z"/><path class="cls-1" d="M444.28,174.78a7.28,7.28,0,0,1,.55-2.88,6.87,6.87,0,0,1,1.49-2.23,6.7,6.7,0,0,1,2.26-1.45,8.18,8.18,0,0,1,5.74,0,6.6,6.6,0,0,1,2.26,1.45,7.06,7.06,0,0,1,1.5,2.23,8,8,0,0,1,0,5.76,6.84,6.84,0,0,1-1.5,2.23,6.48,6.48,0,0,1-2.26,1.46,8.18,8.18,0,0,1-5.74,0,6.57,6.57,0,0,1-2.26-1.46,6.66,6.66,0,0,1-1.49-2.23A7.21,7.21,0,0,1,444.28,174.78Zm2.41,0a5.79,5.79,0,0,0,.33,2,4.79,4.79,0,0,0,1,1.58,4.63,4.63,0,0,0,1.51,1.06,5.12,5.12,0,0,0,3.92,0,4.53,4.53,0,0,0,1.51-1.06,4.63,4.63,0,0,0,1-1.58,6.08,6.08,0,0,0,0-3.95,4.63,4.63,0,0,0-1-1.58,4.55,4.55,0,0,0-1.51-1.07,4.79,4.79,0,0,0-5.43,1.07,4.79,4.79,0,0,0-1,1.58A5.74,5.74,0,0,0,446.69,174.78Z"/><path class="cls-1" d="M462.29,159.76h2.23v21.76h-2.23Z"/><path class="cls-1" d="M480.67,178.32c0,.62,0,1.2.05,1.73s.06,1,.06,1.47h-2.12c0-.36,0-.73,0-1.09s0-.74,0-1.13h-.06a3.53,3.53,0,0,1-.64.95,4.7,4.7,0,0,1-1,.82,5.62,5.62,0,0,1-1.29.58,5.48,5.48,0,0,1-1.55.22,5.88,5.88,0,0,1-2.28-.41,4.28,4.28,0,0,1-1.59-1.12,4.55,4.55,0,0,1-.93-1.74,7.91,7.91,0,0,1-.3-2.23v-8.32h2.24v8.09a4.28,4.28,0,0,0,.74,2.67,2.71,2.71,0,0,0,2.32,1,4.35,4.35,0,0,0,1.88-.37,3.36,3.36,0,0,0,1.29-1.07,4.57,4.57,0,0,0,.74-1.64,8.06,8.06,0,0,0,.25-2.1v-6.56h2.24Z"/><path class="cls-1" d="M492.25,170h-4v6.73q0,.66,0,1.23a2.48,2.48,0,0,0,.23,1,1.53,1.53,0,0,0,.6.66,2.26,2.26,0,0,0,1.15.24,5,5,0,0,0,1-.11,4,4,0,0,0,1-.35l.09,2a5.32,5.32,0,0,1-1.28.37,7.82,7.82,0,0,1-1.33.12,4.85,4.85,0,0,1-1.92-.32,2.63,2.63,0,0,1-1.12-.89,3.52,3.52,0,0,1-.53-1.43,13.32,13.32,0,0,1-.13-1.88V170h-2.92v-1.9h2.92v-3.83h2.24v3.83h4Z"/><path class="cls-1" d="M494.71,162.78a1.61,1.61,0,0,1,.47-1.15,1.56,1.56,0,0,1,1.17-.49,1.51,1.51,0,0,1,1.15.49,1.58,1.58,0,0,1,.48,1.15,1.63,1.63,0,0,1-.46,1.18,1.64,1.64,0,0,1-2.81-1.18Zm.52,5.27h2.23v13.47h-2.23Z"/><path class="cls-1" d="M501.13,174.78a7.46,7.46,0,0,1,.55-2.88,6.87,6.87,0,0,1,1.49-2.23,6.65,6.65,0,0,1,2.27-1.45,7.82,7.82,0,0,1,2.86-.52,7.91,7.91,0,0,1,2.87.52,6.7,6.7,0,0,1,2.26,1.45,6.87,6.87,0,0,1,1.49,2.23,7.82,7.82,0,0,1,0,5.76,6.66,6.66,0,0,1-1.49,2.23,6.57,6.57,0,0,1-2.26,1.46,7.91,7.91,0,0,1-2.87.52,7.82,7.82,0,0,1-2.86-.52,6.52,6.52,0,0,1-2.27-1.46,6.66,6.66,0,0,1-1.49-2.23A7.39,7.39,0,0,1,501.13,174.78Zm2.41,0a5.79,5.79,0,0,0,.33,2,4.63,4.63,0,0,0,1,1.58,4.7,4.7,0,0,0,1.5,1.06,5.17,5.17,0,0,0,3.94,0,4.7,4.7,0,0,0,1.5-1.06,4.63,4.63,0,0,0,1-1.58,6.08,6.08,0,0,0,0-3.95,4.63,4.63,0,0,0-1-1.58,4.73,4.73,0,0,0-1.5-1.07,5.17,5.17,0,0,0-3.94,0,4.73,4.73,0,0,0-1.5,1.07,4.63,4.63,0,0,0-1,1.58A5.74,5.74,0,0,0,503.54,174.78Z"/><path class="cls-1" d="M518.94,171.24c0-.61,0-1.19-.06-1.72s-.06-1-.06-1.47H521c0,.36,0,.73,0,1.09s0,.74,0,1.12h.06a3.87,3.87,0,0,1,.64-.95,5,5,0,0,1,1-.82,5.43,5.43,0,0,1,2.84-.79,5.84,5.84,0,0,1,2.28.41,4.17,4.17,0,0,1,1.59,1.12,4.55,4.55,0,0,1,.93,1.74,7.86,7.86,0,0,1,.3,2.23v8.32H528.4v-8.09a4.33,4.33,0,0,0-.75-2.68,2.74,2.74,0,0,0-2.32-1,4.35,4.35,0,0,0-1.88.38,3.34,3.34,0,0,0-1.29,1.06,4.92,4.92,0,0,0-.74,1.64,8.2,8.2,0,0,0-.25,2.11v6.56h-2.23Z"/><path class="cls-1" d="M535.16,178a5.42,5.42,0,0,0,1.45,1.32,3.65,3.65,0,0,0,2,.49,5.25,5.25,0,0,0,1-.11,3.07,3.07,0,0,0,1-.38,2.24,2.24,0,0,0,.69-.64,1.67,1.67,0,0,0,.26-.94,1.53,1.53,0,0,0-.25-.89,2.06,2.06,0,0,0-.65-.59,3.36,3.36,0,0,0-.92-.39c-.34-.1-.69-.18-1-.26-.64-.13-1.23-.29-1.81-.46a5.82,5.82,0,0,1-1.51-.68,3.23,3.23,0,0,1-1-1.08,3.28,3.28,0,0,1-.38-1.69,3.37,3.37,0,0,1,.43-1.73,3.76,3.76,0,0,1,1.14-1.24,5.41,5.41,0,0,1,1.61-.75,6.58,6.58,0,0,1,1.83-.26,6.09,6.09,0,0,1,2.66.58,4.14,4.14,0,0,1,1.9,1.87l-1.86,1.24a3.61,3.61,0,0,0-1.13-1.17,3.11,3.11,0,0,0-1.71-.45,3.77,3.77,0,0,0-.93.12,2.82,2.82,0,0,0-.85.35,1.91,1.91,0,0,0-.61.59,1.37,1.37,0,0,0-.25.82,1.07,1.07,0,0,0,.28.73,2.27,2.27,0,0,0,.74.53,6.22,6.22,0,0,0,1.09.41,12.39,12.39,0,0,0,1.27.28,14.06,14.06,0,0,1,1.7.45,5,5,0,0,1,1.4.73,3.26,3.26,0,0,1,1,1.16,3.74,3.74,0,0,1,.34,1.69,4,4,0,0,1-.45,2,3.84,3.84,0,0,1-1.22,1.31,5.49,5.49,0,0,1-1.73.74,8.54,8.54,0,0,1-2,.23,7.5,7.5,0,0,1-3-.54,5.28,5.28,0,0,1-2.24-2Z"/><path class="cls-1" d="M127.4,90.21H104.11v56.84H81.86V90.21H58.47V72.32H127.4Z"/><path class="cls-1" d="M159.24,95.58h0l15.63,51.47h22.6l-24.31-64.7a15,15,0,0,0-13.93-10h0a15,15,0,0,0-13.93,10l-24.41,64.72H143.6l15.64-51.47Z"/><path class="cls-1" d="M265.49,147.05V107.68l-12.57,25.63a3.58,3.58,0,0,1-3.2,2.05h-7.5a3.58,3.58,0,0,1-3.19-2.05l-12.57-25.63v39.37H204.2V72.32h14.17a16.73,16.73,0,0,1,14.88,9.53L246,107.47,258.8,81.81a16.72,16.72,0,0,1,14.86-9.49h14.08v74.73Z"/><path class="cls-2" d="M297.22,109.05A34.44,34.44,0,0,1,300,95.58a36.41,36.41,0,0,1,8.16-11.9,41.66,41.66,0,0,1,13-8.52,44.06,44.06,0,0,1,17.46-3.26q11.76,0,20.38,4.47a30.49,30.49,0,0,1,12.83,11.84l-17,11.16a13.32,13.32,0,0,0-3-4.53A15.49,15.49,0,0,0,347.66,92a19,19,0,0,0-4.74-1.47,28,28,0,0,0-4.74-.43,18.31,18.31,0,0,0-8.27,1.74,16.83,16.83,0,0,0-5.71,4.53,19.12,19.12,0,0,0-3.3,6.31,23.52,23.52,0,0,0-1.09,7,22.63,22.63,0,0,0,1.25,7.48,19.08,19.08,0,0,0,3.66,6.31,17.63,17.63,0,0,0,5.87,4.37,18.18,18.18,0,0,0,7.82,1.63,24.59,24.59,0,0,0,4.68-.47,18.7,18.7,0,0,0,4.62-1.58,15.71,15.71,0,0,0,4-2.84,12.53,12.53,0,0,0,2.8-4.27l18.14,10a21.33,21.33,0,0,1-5.53,7.37,35.15,35.15,0,0,1-8.45,5.47,46.79,46.79,0,0,1-10.16,3.37A50.55,50.55,0,0,1,338,147.68a40.22,40.22,0,0,1-16.49-3.32,41.62,41.62,0,0,1-12.9-8.78,39.71,39.71,0,0,1-8.39-12.43A35.55,35.55,0,0,1,297.22,109.05Z"/><path class="cls-2" d="M415.79,147.68a41.52,41.52,0,0,1-29.67-11.84,38.38,38.38,0,0,1-8.33-12.16,35.06,35.06,0,0,1-3-14.1,34.31,34.31,0,0,1,3.08-14.21,37.55,37.55,0,0,1,8.62-12.05A42.08,42.08,0,0,1,399.65,75a43.38,43.38,0,0,1,16.6-3.1A41.64,41.64,0,0,1,433,75.16a40.94,40.94,0,0,1,12.9,8.63A38.2,38.2,0,0,1,454.19,96a35.29,35.29,0,0,1,2.92,14A33.84,33.84,0,0,1,454,124.16a38,38,0,0,1-8.56,12,42.06,42.06,0,0,1-13.06,8.37A42.74,42.74,0,0,1,415.79,147.68Zm-18.37-37.89a23.62,23.62,0,0,0,1.14,7.31,18.58,18.58,0,0,0,3.43,6.27,17.07,17.07,0,0,0,5.76,4.42,21,21,0,0,0,16.6-.06,16.41,16.41,0,0,0,5.76-4.52,18.89,18.89,0,0,0,3.32-6.37,25.39,25.39,0,0,0,1.08-7.26,23.94,23.94,0,0,0-1.14-7.32,17.72,17.72,0,0,0-3.48-6.21,17.28,17.28,0,0,0-5.82-4.31,19.06,19.06,0,0,0-8.17-1.64,18.86,18.86,0,0,0-8.27,1.69,16.68,16.68,0,0,0-5.76,4.47,18.27,18.27,0,0,0-3.37,6.32A24.46,24.46,0,0,0,397.42,109.79Z"/><path class="cls-2" d="M488.83,110.31v36.74H466.58V72.32h9.7a16.87,16.87,0,0,1,12.79,6l27.38,32v-38H538.7v74.73H528.4A16.53,16.53,0,0,1,516,141.31Z"/><path class="cls-2" d="M560.27,147.79a11.48,11.48,0,0,1-6-1.53,10.91,10.91,0,0,1-4-4,11.64,11.64,0,0,1,1.65-13.48,10.93,10.93,0,0,1,8.33-3.26A11.28,11.28,0,0,1,566,127a11.72,11.72,0,0,1,4.17,4,10.39,10.39,0,0,1,1.6,5.69,10.22,10.22,0,0,1-1.6,5.58,12.24,12.24,0,0,1-4.17,4A11,11,0,0,1,560.27,147.79Z"/></svg>