<svg id="Layer_1" data-name="Layer 1" xmlns="http://www.w3.org/2000/svg" viewBox="0 0 458.84 234.29"><defs><style>.cls-1{fill:#26a6df;}.cls-2{fill:#27408a;}.cls-3{fill:#7f8080;}</style></defs><path class="cls-1" d="M83.43,117.36c-29,17.65-45.21,35.72-42,50.4,6.68,30.82,96,35.08,199.41,9.57,63.69-15.73,117.88-39.08,148.58-61.91-31.86,18.68-77.85,36.74-130.25,49.67-103.82,25.63-193.41,21.42-200.09-9.38C56.6,144.36,65.74,131,83.43,117.36"/><path class="cls-2" d="M115.81,111.49c-26.51,14.2-41.72,28.86-39.6,41,4.43,25.35,83.21,29.76,176,9.83C309.27,150,358.33,131.37,386.58,113c-29.09,15-70.65,29.37-117.62,39.47-93.08,20-172.13,15.65-176.57-9.7-1.63-9.33,7.12-20.22,23.42-31.23"/><path class="cls-2" d="M436.16,102.82V92H419.3V40.79H408.56v62ZM372,51.6a22,22,0,0,1,8.22,1.5A19,19,0,0,1,391,63.84,21.64,21.64,0,0,1,392.5,72,21,21,0,0,1,391,80a18.26,18.26,0,0,1-4.18,6.33,19.56,19.56,0,0,1-6.47,4.18A22.58,22.58,0,0,1,372,92h-1.84a22.65,22.65,0,0,1-8.3-1.46,19.05,19.05,0,0,1-6.48-4.14,18.67,18.67,0,0,1-4.21-6.33,20.72,20.72,0,0,1-1.52-8,21.27,21.27,0,0,1,1.55-8.27,19.05,19.05,0,0,1,4.3-6.45A19.65,19.65,0,0,1,362,53.1a21.85,21.85,0,0,1,8.19-1.5Zm0,51.22a31.86,31.86,0,0,0,12.56-2.44,29.64,29.64,0,0,0,9.9-6.72,30.4,30.4,0,0,0,6.49-10.06,33.26,33.26,0,0,0,2.3-12.43A32.34,32.34,0,0,0,401,59a27.72,27.72,0,0,0-6.32-9.62,28.58,28.58,0,0,0-9.86-6.33A34.9,34.9,0,0,0,372,40.79h-1.84A35.1,35.1,0,0,0,357.39,43a27.93,27.93,0,0,0-16.22,15.91,32.12,32.12,0,0,0-2.27,12.25,33.07,33.07,0,0,0,2.31,12.43,30.78,30.78,0,0,0,6.45,10.06,29.11,29.11,0,0,0,9.89,6.72,32.16,32.16,0,0,0,12.6,2.44Zm-59.41,0a24.87,24.87,0,0,0,8.67-1.44,20.29,20.29,0,0,0,6.71-4,17.18,17.18,0,0,0,4.35-6,19.36,19.36,0,0,0,1.5-7.72A20,20,0,0,0,332.39,76a18.42,18.42,0,0,0-4-6A17.73,17.73,0,0,0,322.36,66a20.23,20.23,0,0,0-7.63-1.4H308.6a7.55,7.55,0,0,1-5.37-1.91,6.31,6.31,0,0,1-2-4.78,5.93,5.93,0,0,1,2-4.48,7.55,7.55,0,0,1,5.4-1.87h21.16V40.79h-20.6a22.84,22.84,0,0,0-7.87,1.3,18.71,18.71,0,0,0-6.12,3.61,16.09,16.09,0,0,0-5.33,12.18,16.68,16.68,0,0,0,1.35,6.8A16.35,16.35,0,0,0,294.92,70a16.64,16.64,0,0,0,5.65,3.51,20,20,0,0,0,7.08,1.23h4.93a16.07,16.07,0,0,1,4.62.64,11.21,11.21,0,0,1,3.65,1.79,8.75,8.75,0,0,1,2.38,2.74,7.08,7.08,0,0,1,.88,3.5,7.33,7.33,0,0,1-3.26,6.2A13.66,13.66,0,0,1,312.58,92h-21.7v10.83ZM285.3,92h-20V76.73h16.79V66H265.34V51.6h19.49V40.79h-30.3v62H285.3ZM160.05,102.82h12.89L199.5,60.9V95.74a7,7,0,0,0,.56,2.86l1.51,2.22,2.22,1.48a7.21,7.21,0,0,0,2.7.52,7.08,7.08,0,0,0,3.26-.81,7.57,7.57,0,0,0,2.95-2.94L236.88,60.9v41.92h10.81V45.7a5.82,5.82,0,0,0-1.27-3.93,4.24,4.24,0,0,0-3.34-1.46,8,8,0,0,0-3.46.75,6.47,6.47,0,0,0-2.74,2.5L210.32,83.48V45.7A5.88,5.88,0,0,0,209,41.77a4.23,4.23,0,0,0-3.34-1.46,8.09,8.09,0,0,0-3.42.75,6.45,6.45,0,0,0-2.78,2.5Zm-53,0H120L146.53,60.9v41.92h10.74V45.7A6,6,0,0,0,156,41.77a4.13,4.13,0,0,0-3.3-1.46,8,8,0,0,0-3.46.75,6.61,6.61,0,0,0-2.75,2.5Zm7.56-51.22V40.79H72.17V51.6H88v51.22H98.82V51.6Z"/><path class="cls-3" d="M125.83,115.48l-.38,1.87-.21.05a5.27,5.27,0,0,0-3.63-1.43,4,4,0,0,0-3.45,1.67,8.34,8.34,0,0,0-1.2,4.89,8.59,8.59,0,0,0,1.2,5,3.93,3.93,0,0,0,3.4,1.72,5.84,5.84,0,0,0,3.94-1.57l.24.13-.17,2a8,8,0,0,1-4.18,1.23,5.66,5.66,0,0,1-4.72-2.14,9.72,9.72,0,0,1-1.67-6.1,9.84,9.84,0,0,1,1.75-6.26,5.93,5.93,0,0,1,5-2.2,7,7,0,0,1,4.13,1.23"/><path class="cls-3" d="M141.23,116.3a9.29,9.29,0,0,1,1.67,6,10.31,10.31,0,0,1-1.77,6.45,6,6,0,0,1-5,2.27,5.68,5.68,0,0,1-4.75-2.14,9.82,9.82,0,0,1-1.67-6.12,9.9,9.9,0,0,1,1.76-6.29,6.1,6.1,0,0,1,5-2.19,5.75,5.75,0,0,1,4.76,2.07m-9.62,6.16q0,6.8,4.61,6.8c3.14,0,4.72-2.22,4.72-6.65a9,9,0,0,0-1.15-5,4,4,0,0,0-3.47-1.64c-3.14,0-4.71,2.17-4.71,6.54"/><polygon class="cls-3" points="161.85 130.77 161.5 125.78 160.69 117.63 160.53 117.63 156.32 128.87 154.77 128.87 150.78 117.63 150.59 117.63 149.79 125.63 149.39 130.77 147.78 130.77 149.36 114.38 151.52 114.38 152.29 116.89 155.57 126.22 155.72 126.22 159.16 116.73 159.94 114.38 162.06 114.38 163.55 130.77 161.85 130.77"/><polygon class="cls-3" points="183.07 130.77 182.72 125.78 181.92 117.63 181.75 117.63 177.55 128.87 175.99 128.87 172 117.63 171.81 117.63 171.01 125.63 170.61 130.77 169 130.77 170.58 114.38 172.73 114.38 173.51 116.89 176.79 126.22 176.94 126.22 180.38 116.73 181.16 114.38 183.29 114.38 184.78 130.77 183.07 130.77"/><path class="cls-3" d="M201.84,124.56a6.62,6.62,0,0,1-1.47,4.7,5.46,5.46,0,0,1-4.3,1.69,5.21,5.21,0,0,1-4.09-1.61,6.49,6.49,0,0,1-1.38-4.55l0-2.23,0-8.17h1.87l-.07,10.14c0,3.08,1.24,4.63,3.82,4.63s3.9-1.46,3.87-4.37l-.09-10.4h1.89l0,8.32Z"/><polygon class="cls-3" points="220.04 130.77 218.05 130.77 210.24 117.65 210.1 117.65 210.08 125.38 210.15 130.77 208.38 130.77 208.49 125.91 208.42 114.38 210.41 114.38 218.19 127.49 218.36 127.49 218.34 114.48 220.13 114.33 219.99 125.96 220.04 130.77"/><polygon class="cls-3" points="227.1 114.38 227.21 125.83 227.1 130.77 229.01 130.77 228.91 125.66 229.03 114.38 227.1 114.38"/><path class="cls-3" d="M245.55,115.48l-.38,1.87-.21.05a5.26,5.26,0,0,0-3.63-1.43,4,4,0,0,0-3.45,1.67,8.34,8.34,0,0,0-1.2,4.89,8.59,8.59,0,0,0,1.2,5,3.93,3.93,0,0,0,3.4,1.72,5.82,5.82,0,0,0,3.94-1.57l.24.13-.17,2a8,8,0,0,1-4.17,1.23,5.62,5.62,0,0,1-4.72-2.14,9.65,9.65,0,0,1-1.68-6.1,9.9,9.9,0,0,1,1.75-6.26,6,6,0,0,1,4.95-2.2,7,7,0,0,1,4.13,1.23"/><path class="cls-3" d="M259.86,130.77l-.36-1.63-.85-2.82-3.4-.08-3.06.08-.93,2.71-.37,1.74H249l5.55-16.39h2.19l5.05,16.39Zm-4.18-14.27h-.17l-2.74,8.08,2.65,0,2.71,0Z"/><polygon class="cls-3" points="274.56 116.17 271.92 116.02 270.38 116.02 270.31 125.66 270.38 130.77 268.47 130.77 268.61 125.83 268.49 116.02 266.96 116.02 264.27 116.17 264.16 115.97 264.29 114.38 274.56 114.38 274.7 114.58 274.56 116.17"/><polygon class="cls-3" points="279.99 114.38 280.11 125.83 279.99 130.77 281.9 130.77 281.81 125.66 281.93 114.38 279.99 114.38"/><path class="cls-3" d="M299.17,116.3a9.29,9.29,0,0,1,1.66,6,10.31,10.31,0,0,1-1.77,6.45,6,6,0,0,1-5,2.27,5.68,5.68,0,0,1-4.75-2.14,9.75,9.75,0,0,1-1.68-6.12,9.9,9.9,0,0,1,1.76-6.29,6.11,6.11,0,0,1,5-2.19,5.76,5.76,0,0,1,4.76,2.07m-9.62,6.16c0,4.53,1.54,6.8,4.6,6.8s4.73-2.22,4.73-6.65a9,9,0,0,0-1.15-5,4,4,0,0,0-3.48-1.64c-3.13,0-4.7,2.17-4.7,6.54"/><polygon class="cls-3" points="318.16 130.77 316.18 130.77 308.37 117.65 308.22 117.65 308.2 125.38 308.27 130.77 306.5 130.77 306.61 125.91 306.54 114.38 308.53 114.38 316.32 127.49 316.49 127.49 316.46 114.48 318.26 114.33 318.12 125.96 318.16 130.77"/><path class="cls-3" d="M332.7,115l-.31,2-.33.1a4.59,4.59,0,0,0-3-1.17l-1.52.38-1,1-.33,1.28.38,1.21,1,.92,1.6.92,2.05,1.18,1.33,1.39.56,2-.64,2.36-1.8,1.71a5.37,5.37,0,0,1-2.64.64A7.73,7.73,0,0,1,324,129.8l.24-2.09.26-.14,1.83,1.29,1.92.42,1.59-.38,1.07-1,.36-1.34-.75-1.73a11.57,11.57,0,0,0-2.29-1.42l-2-1.19-1.31-1.36-.54-2,.63-2.3,1.75-1.65a5.29,5.29,0,0,1,2.56-.6,8.19,8.19,0,0,1,3.37.77"/></svg>