<svg id="Layer_1" data-name="Layer 1" xmlns="http://www.w3.org/2000/svg" xmlns:xlink="http://www.w3.org/1999/xlink" viewBox="0 0 595.28 841.89"><defs><style>.cls-1{fill:none;}.cls-2{clip-path:url(#clip-path);}.cls-3{fill:#f3903f;}</style><clipPath id="clip-path"><rect class="cls-1" width="595.28" height="841.89"/></clipPath></defs><g class="cls-2"><g class="cls-2"><path class="cls-3" d="M337.12,577.29a2.16,2.16,0,0,0,0-.76,6.61,6.61,0,0,0-.51-1.69,1.62,1.62,0,0,0-1.49-.93,1.65,1.65,0,0,0-1.29,1,9.86,9.86,0,0,0-.84,5.56c.31,1.42,1.38,1.85,2.38,1a7,7,0,0,0,1.37-2.11,8.25,8.25,0,0,0,.37-2m7.93-44.61a3.2,3.2,0,0,0-2.59,1.23,5.2,5.2,0,0,0-.12,6.7,3.33,3.33,0,0,0,5.22.35,5,5,0,0,0-.17-7.38,3,3,0,0,0-2.34-.9M329.6,567a.74.74,0,0,0,.12-.45,11.54,11.54,0,0,0,0-2.15c-.34-.88.37-2.1,1.58-2.72,2.11-1.17,6.44-3.5,9.68-5.22.71-.05,1.2-.89,1.1-1.89-.11-1.34-.27-4.08-.37-6.12a1.56,1.56,0,0,0-.9-1.66c-2.84-1.49-4.95-6.2-4.72-10.52,0-.31.12-.94.2-1.41.21-3.26,3.35-6.38,7-7a9.2,9.2,0,0,1,5.86.77c2.12.68,4.23,3.68,4.71,6.71,1.64,3.67-.54,8.77-4.88,11.4a2.15,2.15,0,0,0-1,1.9c-.05,1.79,0,5.43,0,8.15.31.86-.38,2.09-1.55,2.75-3,1.72-9.17,5.26-13.74,7.91a3.17,3.17,0,0,0-.93.64.63.63,0,0,0-.06.63,1,1,0,0,0,.6.18l.5-.26c2.07-1.51,5.62-1.1,7.94.92,3.63,2.66,4.47,8.53,1.88,13.1-.82,2.51-4.35,4.7-7.88,4.89-1-.35-1.84.59-1.82,2.1a19.72,19.72,0,0,1-.21,3.83,2.39,2.39,0,0,1-2,2.54,2.91,2.91,0,0,1-3.55-1.2,6.09,6.09,0,0,1-1.26-2.67,37.33,37.33,0,0,1-.79-6.66c-.07-2.84-.09-8.67,0-13a11.23,11.23,0,0,1,.54-3.07,2.76,2.76,0,0,1,3-2.19c.15,0,.46-.06.7-.1,0,0,.07,0,.19-.14"/><path class="cls-3" d="M264.34,539.2s0,.1,0,.15a21.34,21.34,0,0,0,3.5-.45,3.4,3.4,0,0,0,2.4-4.45c-1.26-3.34-5.14-4.92-8-3.28a14.82,14.82,0,0,0-2.43,1.93,3.29,3.29,0,0,0-1,3.88,3.52,3.52,0,0,0,3.23,2.2c.75.07,1.51,0,2.27,0m-4.91,4.24c-1.29-.78-2.29-1.32-3.22-2a6.49,6.49,0,0,1-3.09-6.06,51.16,51.16,0,0,1,.59-5.09,4.74,4.74,0,0,1,2.6-3.39,14.89,14.89,0,0,1,7.5-2c1,0,2,0,3,0a13,13,0,0,1,8.91,4,2,2,0,0,0,1.53.62c1.19,0,2.38,0,3.57,0s1.49.24,1.53,1.51c0,1,0,1.91,0,2.86s-.27,1.31-1.39,1.36-2,0-3,0-1.22.17-1.3,1.12c-.26,2.77-1.94,4.46-4.17,5.77a8.4,8.4,0,0,0-1.86,1.29c.41,0,.82.08,1.23.08h2.85c2.07,0,2.05.1,2,2.22-.05,4,0,8,.08,12,0,1.51-.14,1.79-1.63,1.82q-1.79,0-3.57,0c-1.34,0-1.54-.23-1.57-1.61,0-1.72,0-3.43,0-5.14,0-.39,0-.77,0-1.15-.08-.95-.26-1.19-1.23-1.2q-3.91,0-7.85,0c-.93,0-1.15.27-1.17,1.25,0,1.66,0,3.33,0,5,0,.52,0,1,0,1.57-.07,1-.28,1.24-1.31,1.27-1.24,0-2.48,0-3.72,0s-1.56-.22-1.57-1.6c0-2.86,0-5.72,0-8.57v-3.86c0-1.86.14-2,2.06-2h3c.32,0,.64,0,1.27-.09"/><path class="cls-3" d="M238.54,548.59c0-2.66,0-5.33,0-8a9.11,9.11,0,0,0-.46-2.79,5.16,5.16,0,0,0-5.25-3.61,5.47,5.47,0,0,0-4.72,4.67,12.81,12.81,0,0,0-.09,1.86c0,4.47,0,8.95,0,13.42a9.2,9.2,0,0,1-.26,2.4,3.14,3.14,0,0,1-3.18,2.38,3.29,3.29,0,0,1-3-2.67,13.61,13.61,0,0,1-.13-2.56c.07-3.71.17-7.42.24-11.13,0-1.52,0-3,0-4.57,0-1.36-.23-1.58-1.59-1.6-1.9,0-3.81,0-5.71,0-1.66,0-1.85-.13-2-1.7-.5-4.25-1-8.51-1.42-12.77-.1-.93.13-1.2,1.12-1.23,1.52,0,3,0,4.56,0,1.34,0,1.55.26,1.66,1.59.18,2,.34,4.08.56,6.11.14,1.36.29,1.46,1.66,1.67,1.13.18,2.26.35,3.38.54a3.07,3.07,0,0,0,2.55-.63,11.32,11.32,0,0,1,16,2.46,11.63,11.63,0,0,1,2.49,7.15c0,3.52,0,7.05,0,10.57,0,.38,0,.76,0,1.14a1,1,0,0,0,1.07,1.05c1.15,0,2.29,0,3.43,0,1.58,0,1.74.18,1.77,1.71,0,1.19,0,2.38,0,3.57,0,1-.25,1.3-1.27,1.31-3.38.05-6.76.05-10.14,0-1,0-1.22-.3-1.23-1.5,0-3,0-5.91,0-8.86Z"/><path class="cls-3" d="M374.23,606.09c-.72.79-1.55.59-2.32.58-3.71,0-7.42-.21-11.14-.19-5,0-10.09.13-15.13.28-4.57.13-9.14.28-13.7.58-7.26.47-14.52,1-21.78,1.62-10.11.81-20.17,2-30.2,3.54-11.13,1.66-22.19,3.66-33.15,6.17-7,1.61-14,3.23-21,5-11.56,2.88-22.93,6.43-34.15,10.45-1.48.53-2.95,1.07-4.44,1.58-.46.15-.95.21-1.42.32l-.15-.37c.32-.22.62-.48,1-.67A191.69,191.69,0,0,1,211.28,624a235.21,235.21,0,0,1,23.92-7.25A288.85,288.85,0,0,1,265.93,611q10.76-1.49,21.54-2.75c4.68-.54,9.38-.87,14.08-1.25,4.88-.39,9.77-.73,14.66-1.06,2.19-.15,4.37-.28,6.56-.32q13.14-.21,26.28-.34c4.05,0,8.1,0,12.15.06s8.08.36,12.12.56a4.89,4.89,0,0,1,.91.24"/><path class="cls-3" d="M380,516.5c-.56.32-1,.06-1.46-.09-2.16-.72-4.29-1.5-6.46-2.18-3-.93-5.92-1.8-8.89-2.65-2.7-.77-5.39-1.53-8.11-2.21-4.33-1.07-8.67-2.09-13-3.1-6-1.4-12.16-2.54-18.29-3.54-6.8-1.1-13.63-2-20.5-2.55-4.39-.36-8.79-.72-13.18-1a218.74,218.74,0,0,0-21.88-.23l-2.89.09c-.29,0-.59-.05-.89-.07l0-.25a6,6,0,0,1,.69-.21,117.63,117.63,0,0,1,16.43-1.81,144.79,144.79,0,0,1,15.31.21,178.72,178.72,0,0,1,19,2.31c4.37.75,8.73,1.54,13.08,2.4,2.83.55,5.64,1.23,8.46,1.88s5.84,1.39,8.75,2.1c1.31.32,2.61.65,3.89,1q7.71,2.31,15.41,4.68c2.37.73,4.74,1.48,7.08,2.29s4.66,1.71,7,2.58a2.8,2.8,0,0,1,.48.31"/><path class="cls-3" d="M284.32,551V534.13c0-2.23.11-2.33,2.34-2.34.91,0,1.81,0,2.72,0,1.51,0,1.75.25,1.77,1.74,0,2.53,0,5.05,0,7.58,0,.43,0,.85,0,1.28a1,1,0,0,0,1.06,1.1c2.33,0,4.66,0,7,0,.82,0,1-.32.88-1.26-.37-2.78-.76-5.57-1.14-8.35-.12-.85-.25-1.7-.33-2.55s.14-1.17,1-1.2c1.43-.06,2.86,0,4.29,0a1.23,1.23,0,0,1,1.3,1.23c.24,1.75.52,3.49.76,5.23l2.46,18.12c0,.24.09.47.1.71,0,.88-.15,1.2-1,1.23-1.48.07-2.95,0-4.43,0a1.39,1.39,0,0,1-1.37-1.22c-.31-1.2-.62-2.4-1-3.59-.4-1.34-.52-1.44-1.89-1.45-1.86,0-3.71,0-5.57,0-2.11,0-2.2.09-2.21,2.15v15.15c0,2.71,0,2.71-2.69,2.71-.9,0-1.81,0-2.71,0-1.1-.06-1.33-.3-1.42-1.37,0-.42,0-.86,0-1.28V551"/><path class="cls-3" d="M371.14,585a3,3,0,0,0-2.41.74,4.44,4.44,0,0,0-1.33,3.49,3,3,0,0,0,3.31,2.82,3.48,3.48,0,0,0,2.93-1.79,4,4,0,0,0,.35-3.82,2.74,2.74,0,0,0-2.85-1.44m2.09,11.89a13.4,13.4,0,0,0-1.2.63,7,7,0,0,1-7.2.53,8.07,8.07,0,0,1-4.57-4.84,11.69,11.69,0,0,1,2-11.3,6.62,6.62,0,0,1,3.5-2.37c2.81-.82,5.61-1,8.31.49a2.06,2.06,0,0,0,.53.12c.07-1.29-.26-1.88-1.36-2.15a15.58,15.58,0,0,0-2.81-.39c-1.05-.07-2.1,0-3.14,0a6.7,6.7,0,0,1-1.42-.11,3.16,3.16,0,0,1-2.55-2.24,3,3,0,0,1,.95-3.12,6.38,6.38,0,0,1,1.9-1.2,8.69,8.69,0,0,1,2.34-.61,15.13,15.13,0,0,1,9.9,1.88c2.95,1.75,4.06,4.59,4.19,7.83a37.34,37.34,0,0,1-.31,6c-.37,3.21-.88,6.41-1.38,9.6a12.48,12.48,0,0,1-.6,2.5,3.82,3.82,0,0,1-6.05,1.44,3.36,3.36,0,0,1-.69-1.21,10.14,10.14,0,0,1-.35-1.44"/><path class="cls-3" d="M313.27,584.58c-.17-1.83-.29-3.49-.51-5.14a11.15,11.15,0,0,0-.63-2.48,2.57,2.57,0,0,0-2.8-2,3,3,0,0,0-3.24,2.08,9.29,9.29,0,0,0-.56,3.06,70.39,70.39,0,0,0,.64,7.1,6.71,6.71,0,0,0,1.05,2.61,2.82,2.82,0,0,0,4.79.08,4.84,4.84,0,0,0,.78-1.82c.24-1.2.34-2.44.48-3.51m7.34-.26a17,17,0,0,1-.78,6.58,9,9,0,0,1-6.65,6.07,15.49,15.49,0,0,1-7.77.15,8.05,8.05,0,0,1-5.54-4.54,18,18,0,0,1-1.19-3.8,38.44,38.44,0,0,1-.63-9.81,13.2,13.2,0,0,1,1.35-5.22,8.52,8.52,0,0,1,4.56-4.12,15.24,15.24,0,0,1,8.15-.82c3.79.58,6.36,2.84,7.59,7.55a25.46,25.46,0,0,1,.91,8"/><path class="cls-3" d="M283.15,579.53a8,8,0,0,0-3.64-.13c-1.31.2-2.62.48-3.94.64a3.88,3.88,0,0,1-4.53-3,2.34,2.34,0,0,1,1-2.74,7.07,7.07,0,0,1,2.47-1.05c3.33-.56,6.68-1,10-1.45a20.6,20.6,0,0,1,3.41-.25c3.95.11,5.44,2.77,3.5,6.19-.54,1-1.16,1.85-1.71,2.8-.3.51-.52,1.08-.88,1.83.64.12,1.08.22,1.52.29,1.09.16,1.47.54,1.61,1.65.28,2.25-.6,3.41-2.87,3.74l-2.4.34a2.8,2.8,0,0,0-2.08,1.37,26.62,26.62,0,0,0-1.45,2.61c-.43,1,0,1.44,1,1.34a8.52,8.52,0,0,0,1-.2c1.73-.33,3.45-.71,5.19-1a11,11,0,0,1,2.56-.1,2.47,2.47,0,0,1,2.36,1.95,3,3,0,0,1-.81,3.27,6,6,0,0,1-3,1.32c-3,.48-6,1-9,1.41a25.41,25.41,0,0,1-4,.45,10.67,10.67,0,0,1-3.47-.59,3,3,0,0,1-1.82-3.88,22.47,22.47,0,0,1,1.59-3.8c.54-1.09,1.23-2.11,1.9-3.24l-.91-.44a2.17,2.17,0,0,1-.92-3.52,3.37,3.37,0,0,1,2.75-1.27c2.89-.17,3.89-2.47,5.45-4.58"/><path class="cls-3" d="M235.32,600.88a27,27,0,0,0-.93-3.25,2.91,2.91,0,0,0-5.09-.52,5.42,5.42,0,0,0,1.65,7.6,2.34,2.34,0,0,0,3.18-.59,6,6,0,0,0,1.19-3.24m-3.45-10.43c-.18-.65-.32-1.13-.45-1.62a26.72,26.72,0,0,1-.76-2.89,3.36,3.36,0,0,1,2.31-3.8c2.62-.95,4.73-.07,5.82,2.51a26.71,26.71,0,0,1,1.14,3.37c1.54,5.5,3,11,4.55,16.52a9.51,9.51,0,0,1,.34,1.67,3.34,3.34,0,0,1-2.41,3.6,8.73,8.73,0,0,1-1.25.29,2.33,2.33,0,0,1-2.5-1,10.74,10.74,0,0,0-.86-.94,6.56,6.56,0,0,0-.79.84c-2.68,4.37-7.86,4.23-11.31,1.5a13.55,13.55,0,0,1-4.21-14.34,8.49,8.49,0,0,1,5.45-5.64,6.29,6.29,0,0,1,3.79-.25,11.19,11.19,0,0,0,1.14.15"/><path class="cls-3" d="M260.71,594.08a9.64,9.64,0,0,0-1.19-3.71,2.39,2.39,0,0,0-1-.91,3.38,3.38,0,0,0-3.73,1.08,5.74,5.74,0,0,0,.92,7.28,2.62,2.62,0,0,0,4.19-.9,19.05,19.05,0,0,0,.86-2.84m1.92,7.78c-.8.86-1.4,1.53-2,2.17A6.19,6.19,0,0,1,255,605.7a9.06,9.06,0,0,1-5.66-3.32,13.69,13.69,0,0,1-1.59-14.51,8.45,8.45,0,0,1,7-4.53,13.52,13.52,0,0,1,3.06.44,5.32,5.32,0,0,0,0-.91c-.22-1-.53-2-.69-3.06a3.51,3.51,0,0,1,3.3-4.28c2.6-.27,3.95.53,4.82,3a27.42,27.42,0,0,1,1,3.44q1.68,7.89,3.29,15.79a12.94,12.94,0,0,1,.33,3,3.49,3.49,0,0,1-6.25,2.28c-.28-.3-.49-.65-.85-1.13"/><path class="cls-3" d="M195.75,614.86c-.48.91,0,1.54.17,2.2a40.64,40.64,0,0,1,1.37,4.49,3.13,3.13,0,0,1-2.59,3.69,3.18,3.18,0,0,1-2.9-.82,12.54,12.54,0,0,1-3.2-4.85c-1.56-3.83-3.14-7.66-4.64-11.52a18.49,18.49,0,0,1-1.1-3.84,8.69,8.69,0,0,1,.13-3.09,3.38,3.38,0,0,1,2.47-2.54,3,3,0,0,1,3.93,1.4,32.68,32.68,0,0,1,1.5,3.54c.27.64.53,1.29.82,2,.69-.38.68-.93.8-1.41.55-2.12,1-4.26,1.66-6.35a8.74,8.74,0,0,1,1.28-2.53,2.85,2.85,0,0,1,4-.87,4.77,4.77,0,0,1,2.54,4.48,15.24,15.24,0,0,1-1.55,5.75c-.38.93-.82,1.83-1.18,2.76-.45,1.18-.3,1.44.91,1.92,1.76.71,3.54,1.38,5.28,2.15a9,9,0,0,1,2.05,1.29,5,5,0,0,1,1.91,4.55,3.59,3.59,0,0,1-4.83,3.17,21.66,21.66,0,0,1-4.1-2.27c-1.19-.78-2.26-1.74-3.42-2.59a9.92,9.92,0,0,0-1.34-.72"/><path class="cls-3" d="M317,534.35l-3.25,1.11c-1.17.4-2.33.85-3.51,1.21-1,.32-1.28.13-1.32-1s0-2.38,0-3.57.21-1.47,1.45-1.71c2-.39,4-.75,6-1.11l11.95-2.17c.32-.06.65-.12,1-.15a.79.79,0,0,1,1,.81c0,1.52,0,3,0,4.56,0,.69-.57.95-1.18,1-1,.16-2.07.3-3.11.45-.42.06-.85.09-1.27.19-.94.21-1.19.52-1.13,1.33s.32,1,1.27,1,1.72,0,2.58,0c1.35.05,1.55.24,1.56,1.62,0,4,0,7.91,0,11.87,0,2.28.13,4.56.18,6.85a9.21,9.21,0,0,1-.06,1.28.92.92,0,0,1-.94.9c-1.33,0-2.67,0-4,0a1,1,0,0,1-1-1.1c0-.43,0-.86,0-1.29v-12c0-.38,0-.77,0-1.14-.06-1-.22-1.17-1.19-1.22s-1.81,0-2.71,0c-1.94,0-2-.1-2.06-2,0-1.38,0-2.76,0-4.15,0-.45-.09-.9-.18-1.66"/><path class="cls-3" d="M210.57,595.84c.42-.08.84-.18,1.27-.23a3,3,0,0,1,3.1,1.57,6.89,6.89,0,0,1,.56,1.31c1.48,4.32,3,8.64,4.43,13a12,12,0,0,1,.58,2.35,4.15,4.15,0,0,1-5.7,4.13,2.83,2.83,0,0,1-1.49-1.66c-.59-1.5-1.17-3-1.69-4.54-1.13-3.29-2.22-6.59-3.32-9.88-.1-.31-.2-.63-.29-1a3.53,3.53,0,0,1,1.71-4.51c.27-.19.55-.37.83-.55h0"/><path class="cls-3" d="M356.4,579.7s0,.92-.13,2c-.1,1.56-.41,6.12-.69,10.2a9.51,9.51,0,0,1-.08,1.43,6.32,6.32,0,0,1-.34,1.81c-1.14,2.74-4,3.65-6.3,2a4.17,4.17,0,0,1-1.3-3.3c.19-3.34.68-10.16,1.08-15.23.89-3.46,3.79-4.87,6.5-3.13a2.62,2.62,0,0,1,1.22,2.14c0,.67,0,1.34,0,1.67,0,.18,0,.33,0,.33h0"/><path class="cls-3" d="M240.43,501.79a12.71,12.71,0,0,1,.5-1.75,2.59,2.59,0,0,0-.58-3.23,8.9,8.9,0,0,1-1-1.23c-.79-1.1-.44-1.9.93-2a13.23,13.23,0,0,1,2-.05,2.28,2.28,0,0,0,2.24-1.22,13.3,13.3,0,0,1,1.3-1.87c.66-.75,1.37-.66,1.8.25a22,22,0,0,1,.84,2.27,2.17,2.17,0,0,0,1.69,1.56,14.82,14.82,0,0,1,2.18.66c1.16.47,1.26,1.23.32,2-.51.43-1,.82-1.59,1.21a2.45,2.45,0,0,0-1.07,2.21,17.35,17.35,0,0,1,0,2.28c-.1,1.14-.76,1.49-1.78.95a11.27,11.27,0,0,1-1.78-1.19,2,2,0,0,0-2.36-.35,13.19,13.19,0,0,1-2.28.82c-.87.22-1.41-.26-1.38-1.3"/><path class="cls-3" d="M246.1,522.63a1.79,1.79,0,0,0-2.17,1l-.08.12c-.42.43-.76,1.21-1.43.94-.39-.15-.69-.86-.79-1.37a2.62,2.62,0,0,0-1.94-2.2,2.18,2.18,0,0,1-1.38-1c-.19-.67.6-1,1.13-1.28a2.42,2.42,0,0,0,1.43-2.41,3.27,3.27,0,0,1,.08-1c.2-.81.68-1,1.36-.56a1.7,1.7,0,0,1,.33.27,3.18,3.18,0,0,0,3.49.84c1.35-.42,1.83.18,1.3,1.49a2.82,2.82,0,0,0,.26,3.19c.35.42.82,1,.34,1.52s-1,.34-1.54.48a1.79,1.79,0,0,1-.39,0"/><path class="cls-3" d="M210.56,595.84a5.51,5.51,0,0,1-3.09,0,2.79,2.79,0,0,1-1.75-3.9,4.41,4.41,0,0,1,5.59-2.32,3,3,0,0,1,.78,5.15,16.55,16.55,0,0,1-1.52,1.07h0"/><path class="cls-3" d="M353.47,574.68a4.91,4.91,0,0,1-3.36-1,2.56,2.56,0,0,1-.82-3.19,4.2,4.2,0,0,1,7-.69,3,3,0,0,1-1.62,4.68,8.57,8.57,0,0,1-1.2.25"/><path class="cls-3" d="M222.35,516.11a12.2,12.2,0,0,0,2-1.64,8.68,8.68,0,0,0,.79-2.05,3.72,3.72,0,0,1,1,.47,2.41,2.41,0,0,0,2.3.77c1.08-.16,1.38.22.92,1.19a2.84,2.84,0,0,0,.05,2.57c.37.82.09,1.18-.82,1.06a2.62,2.62,0,0,0-2.45.77c-.36.39-1,.58-1.15,0a4.46,4.46,0,0,0-2.59-3.12"/><path class="cls-3" d="M266.78,509.73a4.2,4.2,0,0,0-2.58,3.43,5.87,5.87,0,0,1-1.11-.7,2.36,2.36,0,0,0-2.14-.84c-1.07.11-1.37-.3-.89-1.23a2.66,2.66,0,0,0,.16-2.3c-.37-1-.12-1.34.95-1.22a3,3,0,0,0,2.37-.68c.59-.47,1.15-.33,1.19.3a3.48,3.48,0,0,0,1.81,2.7c.06.05.08.17.24.54"/><path class="cls-3" d="M352.05,327.83l-.75,1.83c1.66.76,3.3,1.57,5,2.19a12.16,12.16,0,0,0,1.07-2l-5.33-2.07m8.23,6.47L359,335.48a32.8,32.8,0,0,0,3.7,4.16c2.8,2.29,4.91,8,3.76,11.36-.26.74-1,1.73-1.63,1.84-4.22.67-8.08,4.49-12.78,1.45-.82-.53-2.39.21-3.61.36,0,.46,0,.92-.05,1.38l28.61,7.2C374.57,351,368.41,342,360.28,334.3m-28.79-22.22c6.17-4.22,9-3.21,11.42,3.86a6,6,0,0,0,2.52,3.27c10.43,5.23,18.69,12.92,25.38,22.69,4.78,7,6.71,14.94,8.9,23.41-11.62-1.38-21.93-6.26-33-7.76-1.92,5.17-1.89,12.33-10.34,13.22a38.83,38.83,0,0,0,5.22,1.34,49.42,49.42,0,0,0,5.83.05c-2.44-4.88,4.16-5.53,4.45-9.42.88,2.3,2.8,4.85,2.34,6.81s-3.34,3.16-5.2,4.74c-.05-.09,0,.14.09.15,7.55.39,10.12,7.11,14.25,11.92,3.83,4.47,2.73,8.58-.3,12.82-.55.77-.44,2-.85,2.91-.33.73-1,1.9-1.49,1.88-6.35-.18-13.14,1.91-18.58-3.47-.1-.11-.2-.34-.27-.33-4.61.74-5.3-3.7-7.35-5.9,1.33-3.82,2.59-7.54,3.92-11.22,2-5.47,4.29-6.8,9.59-5.71a2.66,2.66,0,0,0,2.65-.84c-3.44-1-6.89-1.91-10.32-2.94-3.69-1.11-8.27-1.65-8.56-6.71s4.27-6.58,7.63-8.72a23,23,0,0,1,3.88-1.46c-1.34-.6-2.16-.9-2.92-1.33-1.12-.64-2.89-1.14-3.17-2.09-1.56-5.35-3.34-10.75-3.88-16.26-.4-4,2.68-6.33,6.69-6.71,1.1-.11,2.18-.35,3.37-.55-.5-3.16-.95-6-1.51-9.58l-7.48,9.33.05.06a68.87,68.87,0,0,0,3-6.33c.38-1.07.07-2.4.07-3.62l-1.11.12c-.4.91-.81,1.81-1.21,2.71l-1.21-.35c.29-1.59.57-3.19.88-4.78.56-2.9.84-5.6-3.36-5.21"/><path class="cls-3" d="M317.43,402.21l-1.11,1.58,5.35,4.13,1.18-1.68-5.42-4m.14-4.46-4-2.37c2.46,6.16,2.46,6.16,8.35,1.82l-3.73-2.12c-.25,1.06-.43,1.78-.63,2.67m23.54,12.51-10.63-13.49c-5.45,5.71-6.82,12.59-3.92,18.05.65,1.22,2.23,1.92,3.16,2.68v8.19a35.19,35.19,0,0,1-3.09-3.62c-4-6.1-7.92-12.28-11.6-18-1.31,2-2.67,3.9-3.88,5.92-1.33,2.2-3,4.35-3.69,6.78-1.45,5-3.62,6.57-8.52,5.14-5.58-1.64-7.69-.73-10.57,5.21,4.63.58,8.94,1.22,13.28,1.65a66.82,66.82,0,0,0,28-3.14l2.71,1.6c-14.22,6.27-39.75,5.88-56.92-2.51l4.36-.24c.16-1,0-2.29.55-3.08,2.19-3.27,3.06-6.22.15-9.76a7.18,7.18,0,0,1,1.69-10.95c7.32-4.68,15.47-5.71,23.9-3.65.49.12.86.73,1.05.91l4.49-2.8c-.86-3.66,1-5.61,5-6.46,9-1.89,9.3-1.87,14.67,5.86,3.43,4.95,7,9.8,10.5,14.7l-.72,1"/><path class="cls-3" d="M306,383.05c-5.57,0-9.94.05-14.31,0-3-.06-8.11-6.35-7.36-9.5,1.48-6.15,2.75-12.32,7.51-17.16,3.55-3.6,7.8-6,12.27-5.93s9.71-1.33,13.7,2.52a41.81,41.81,0,0,1,2.88,3.07c1.28,1.49,2.23,3.44,3.77,4.47,2.5,1.68,3.05,3.27,1.33,5.82a10.82,10.82,0,0,0-2,4.33c-.4,3.05-1,5.58-4.59,5.86a1.38,1.38,0,0,0-1.05.69c-2.45,6.6-8.72,4.47-12.11,5.85"/><path class="cls-3" d="M262.14,323.79c11.17-7.73,23.61-11.68,38.29-13.13l-5.81,4.43c7.86-1,15.69,8.85,13.77,15.64-.41,1.44-1.42,3.31-2.62,3.79a73.89,73.89,0,0,1-14,4.54c-7,1.28-12.09-2.95-16.48-7.88-.53-.59-.23-2.7.41-3.49a36.72,36.72,0,0,1,6.38-6.5,103.39,103.39,0,0,1,9.75-5.79c-.11-.37-.21-.74-.31-1.11-4.36,1.36-8.86,2.4-13,4.18-3.57,1.52-6.68,4.14-10.21,5.81-1.74.83-4,.62-6,.88l-.21-1.37"/><path class="cls-3" d="M257.56,384.53c-3.74-1.19-8-1.87-11.66-3.84-7.69-4.15-7.29-11.52,0-16.41,7.5-5,15-5.92,23.22-2.39,2.57,1.1,4.57,2.44,4.39,5.7a5.77,5.77,0,0,0,.31,2.18c2.07,6,.48,9.3-5.49,11.26-3.32,1.09-6.65,2.16-10.77,3.5"/><path class="cls-3" d="M275.34,356.48c-9.46-2.7-18.89-5.46-28.39-8-1.14-.3-3.51.2-3.74.87A159.7,159.7,0,0,0,238,366.67c-1.34,6.06-1.61,12,1.86,18,1.5,2.59.25,6.82-.16,10.63-1.55-7.07-3.9-14.09-4.45-21.24A46.66,46.66,0,0,1,239,351.93c.51-1.18.64-2.59,1.36-3.6,2.5-3.56,4.28-7.14,2.6-11.69-.24-.65.91-1.82,1.42-2.74-.06,3.41-1.26,7.28,3.48,8.74l.34.16.3-.22,5.25,2.6-5.05,2.7c4.45.49,7.56,1,10.69,1.06.86,0,2-1,2.56-1.77a2.28,2.28,0,0,0-.59-2.15c-3.58-2.19-7.26-4.21-10.91-6.29-.74-.42-1.46-.9-2.62-1.61l4.14-.62-4.48-2.7c9.46,1.79,18.95,3.41,28.35,5.46,5,1.09,7.72,5.25,8.77,9.88.57,2.54.11,6.52-1.53,8-1.32,1.2-5.1-.37-7.79-.71.41-.56,1.29-1.28,1.16-1.64-2.66-7.61-5-8.54-12.17-5-.75.37-1.53.68-2.29,1l13.39,5.7"/><path class="cls-3" d="M280.16,393.33l-5.74-4.4-.85.66,2.87,7.39,3.72-3.65m-14.54-1.91c.9-1.48,1.73-3,2.69-4.44,3.49-5.25,15.09-6.22,19.5-1.6,2.4,2.52,1.91,5.12-.35,7.37-4.49,4.46-9.07,8.83-13.65,13.2-3.23,3.08-6.52,6.09-9.88,9.22,1.07,1.68,2.07,3.24,3.28,5.15l-10.82-5.07c3.7,0,6.73-3.44,7-8,5.38.66,6-4.46,9.5-7.54-2.64-.54-4.42-.54-5.82-1.29s-2.77-2.37-4.13-3.59q1.37-1.68,2.72-3.37"/><path class="cls-3" d="M333.31,329.4l-1.86,3.22-2.68-5.15-1.29.5-.74,8.79,4.75-4.19c-1.59,2.44-3.09,4.94-4.78,7.29-3,4.15-7.34,5.55-10.62,3.57s-5.42-8.66-3.22-12.64c2.46-4.44,5.65-8.42,8.51-12.62.72-1.07,1.35-2.2,2.3-3.74-4.88-2.34-11.09,2.33-15.22-4.24L326.53,312c.16,1.56.33,3.15.48,4.73a3.19,3.19,0,0,0-.7.52c-1.13,1.49-2.24,3-3.35,4.51a34.36,34.36,0,0,0,4.9,1.29c2.89.35,4.76,1.4,4.4,4.93-.05.46.72,1,1.1,1.53Z"/><path class="cls-3" d="M345.72,423l-.26-.52c0,.11-.12.24-.09.31s.19.12.35.21m-4.38-12.55.71-1,6.49,7.83,7.79-2.67.6.69c-3.69,3.33-7.27,6.79-11.1,9.94a11.21,11.21,0,0,1-6.4,2.36l3.21-2.34c-.39-.58-.51-1-.71-1-5.71-1.39-6.59-3.42-3.68-9.08a49.39,49.39,0,0,1,3.09-4.7"/><path class="cls-3" d="M368.64,400.09c2.65-6.33,5.31-12.65,7.92-19a2.83,2.83,0,0,0,0-1.29l-10,1.67-.15-1.55a11.66,11.66,0,0,0,2.92.23c2.56-.43,6.18.18,4.52-4.79-.35-1.08.46-2.57.7-3.87s.48-2.92.69-4.22l7,3.46c-2,6.13-3.91,12.94-6.41,19.51-1.36,3.59-3.7,6.78-5.6,10.15l-1.61-.3"/><path class="cls-3" d="M262.39,394.84c-1,2.45-1.93,4.9-3.09,7.85l-5.71-1c3.21-3.5,6.39-7,9.67-10.44.26-.28,1.19.15,1.81.26l-2.68,3.33"/><path class="cls-3" d="M357.31,373.67l10.89-1.38L365.67,378c-1.26-.68-2.52-1.36-3.8-2s-2.49-1.24-4.56-2.26"/><path class="cls-3" d="M368.34,400.36l1.59.3q-6.33,7.15-12.65,14.33l-.6-.69q5.83-7,11.66-13.94"/><path class="cls-3" d="M351.23,247.31H322.89c0-.42-.07-.85-.07-1.27,0-2.41,0-4.83,0-7.25a16.36,16.36,0,0,0-5.22-12.19,98.45,98.45,0,0,1-7.31-7.71c-3.82-4.69-5.22-10.39-5.92-16.25-.36-3.11-.54-6.26-.63-9.4a5.31,5.31,0,0,1,4.05-5.36c3.54-.93,6.72,1.58,6.89,5.43.09,2,.08,4,.33,6a53.74,53.74,0,0,0,1.34,7.48c1.71,6.17,6.09,10.05,11.7,12.59,10.06,4.56,22.58.62,28.07-8.71a23.18,23.18,0,0,0,2.67-9.22c.33-2.67.46-5.37.59-8.07.16-3.38,2.49-5.81,5.6-5.73s5.45,2.68,5.38,6.06A62.58,62.58,0,0,1,368,210.68a27.11,27.11,0,0,1-7,11.44c-1.63,1.62-3.25,3.25-4.89,4.86a15.89,15.89,0,0,0-4.9,11.83c0,2.38,0,4.76,0,7.13Z"/><path class="cls-3" d="M322.46,200.5H318c-.15-2.73-.34-5.41-.43-8.1a8.76,8.76,0,0,0-17.52-.19c-.12,2.73-.28,5.45-.43,8.26h-4.46c0-2.31,0-4.56,0-6.8.12-5.41-2.09-9.84-5.71-13.67-2.47-2.61-5.13-5-7.41-7.8-3.71-4.49-5.2-10-5.9-15.62a99.18,99.18,0,0,1-.73-10.48,5.34,5.34,0,0,1,5.54-5.24,5.47,5.47,0,0,1,5.35,5.34,40.72,40.72,0,0,0,.23,5c.56,3.49.78,7.15,2.06,10.38,2.84,7.21,8.69,11.21,16.16,12.55,8.32,1.49,15.34-1.24,21-7.44,2.89-3.15,4-7,4.53-11.13.38-2.95.57-5.93.7-8.91.15-3.27,2.41-5.74,5.47-5.75a5.5,5.5,0,0,1,5.49,5.82,63.71,63.71,0,0,1-1.94,15.91,28.8,28.8,0,0,1-8.56,13.92c-1.12,1.05-2.17,2.16-3.28,3.22a18.55,18.55,0,0,0-5.77,13.88v6.9"/><path class="cls-3" d="M301,207.85a32,32,0,0,0,5.16,12.34c-.54.59-1,1.17-1.56,1.7-1.59,1.6-3.18,3.2-4.8,4.76A16.28,16.28,0,0,0,294.65,239c0,2.73,0,5.46,0,8.3H266.42c0-.51-.07-1-.07-1.53,0-2.62,0-5.24,0-7.86a15.56,15.56,0,0,0-4.72-10.8c-2.18-2.2-4.43-4.33-6.51-6.63-4.14-4.59-6.08-10.2-6.88-16.21-.46-3.51-.69-7.05-.88-10.59a5.47,5.47,0,0,1,5.3-6c3.12-.09,5.41,2.35,5.62,5.69.22,3.57.5,7.15,1,10.69,1.22,8.08,6.28,13.07,13.59,15.84a22.18,22.18,0,0,0,25.93-8.06c.83-1.2,1.44-2.56,2.24-4"/><path class="cls-3" d="M297.93,149.3a42.52,42.52,0,0,1,.53-5.78,10.5,10.5,0,0,1,11.19-8,10.67,10.67,0,0,1,9.67,10.25q.1,3.63,0,7.26a10.63,10.63,0,0,1-21.25-.11c0-1.19,0-2.38,0-3.57h-.14"/><path class="cls-3" d="M347.76,196.26a49.84,49.84,0,0,1-.33,5.33,10.54,10.54,0,0,1-11.22,8.74,10.69,10.69,0,0,1-9.8-10.51q0-3.51,0-7a10.62,10.62,0,0,1,21.22-.47c.07,1.3,0,2.61,0,3.92h.12"/><path class="cls-3" d="M291.33,196.29a44.87,44.87,0,0,1-.3,5.33,10.57,10.57,0,0,1-11.26,8.71A10.68,10.68,0,0,1,270,199.79q-.06-3.45,0-6.9a10.62,10.62,0,1,1,21.24.18c0,1.07,0,2.14,0,3.22h.09"/><path class="cls-3" d="M349.42,132.85c-1.51,0-2.24-1.38-1.55-2.43a8.17,8.17,0,0,1,1.16-1.27l9-9.05c.17-.17.33-.33.5-.48a1.62,1.62,0,0,1,2.36-.18,1.65,1.65,0,0,1-.12,2.46q-5.16,5.19-10.36,10.34a4,4,0,0,1-1,.61"/><path class="cls-3" d="M257.74,118.77a8.9,8.9,0,0,1,1.39.89q5.19,5.16,10.34,10.36a1.59,1.59,0,1,1-2.23,2.25c-3.5-3.46-7-6.93-10.41-10.46a2.27,2.27,0,0,1-.4-1.85c.11-.46.81-.77,1.31-1.19"/><path class="cls-3" d="M307.55,107.26v-7.15c0-1.38.44-2.15,1.24-2.18s1.3.75,1.3,2.1q0,7.22,0,14.42c0,1.36-.48,2.14-1.28,2.12s-1.25-.77-1.26-2.16v-7.15"/><path class="cls-3" d="M243.78,173.59h-7.15c-1.38,0-2.15-.46-2.17-1.25s.73-1.29,2.1-1.3H251c1.37,0,2.11.47,2.1,1.3s-.78,1.25-2.15,1.25h-7.15"/><path class="cls-3" d="M373.86,173.58c-2.5,0-5,0-7.5,0-1.28,0-2.05-.78-1.72-1.62a1.64,1.64,0,0,1,1.7-.91h15.12c1.06,0,1.79.58,1.71,1.3s-.69,1.23-1.7,1.23c-2.54,0-5.07,0-7.61,0"/><path class="cls-3" d="M257.51,149.54a1.68,1.68,0,0,1-2.43,1.75c-2.1-.84-4.18-1.72-6.28-2.58-1.59-.65-3.19-1.3-4.78-2-1.24-.52-1.7-1.32-1.3-2.2s1.33-1.15,2.56-.64c3.62,1.49,7.24,3,10.83,4.51a6,6,0,0,1,1.4,1.13"/><path class="cls-3" d="M361.53,151.65c-.39-.37-1-.71-1.27-1.23a1.31,1.31,0,0,1,.84-1.82c1.65-.72,3.31-1.41,5-2.11q3.14-1.31,6.28-2.58c1.23-.51,2.15-.29,2.56.61s0,1.69-1.29,2.21l-10.73,4.46c-.35.14-.72.24-1.37.46"/><path class="cls-3" d="M282.59,105.84c.23.23.85.56,1.05,1.08,1.52,3.89,3,7.82,4.41,11.74a1.56,1.56,0,0,1-.8,2.13,1.47,1.47,0,0,1-2-1q-2.2-5.8-4.33-11.65a1.63,1.63,0,0,1,1.71-2.31"/><path class="cls-3" d="M331.36,120.92a1.67,1.67,0,0,1-1.72-2.36c.88-2.46,1.82-4.9,2.73-7.34.51-1.37,1-2.74,1.53-4.1.42-1.08,1.2-1.51,2.05-1.18s1.2,1.2.79,2.31c-1.4,3.82-2.8,7.64-4.28,11.42a4.21,4.21,0,0,1-1.1,1.25"/><path class="cls-3" d="M251.49,115.84a5.61,5.61,0,0,1-1.1-.61,17.65,17.65,0,0,1-1.67-1.68,1.35,1.35,0,0,1,0-2,1.3,1.3,0,0,1,1.93,0,10.37,10.37,0,0,1,1.78,1.85,2.11,2.11,0,0,1,.17,1.6c-.13.39-.72.62-1.11.92"/><path class="cls-3" d="M367.87,111.11a1.36,1.36,0,0,1,1.25,2.1,9.18,9.18,0,0,1-2.17,2.14,1.73,1.73,0,0,1-1.63-.13,1.56,1.56,0,0,1-.34-1.5,20.34,20.34,0,0,1,2.48-2.52c.1-.1.33-.08.41-.09"/><path class="cls-3" d="M310.1,89.48c0,.39,0,.78,0,1.16,0,.91-.46,1.45-1.26,1.5s-1.23-.58-1.27-1.48,0-1.55,0-2.32.46-1.45,1.27-1.5,1.22.58,1.27,1.48c0,.39,0,.78,0,1.16Z"/><path class="cls-3" d="M226,173.55a12.5,12.5,0,0,1-1.37,0,1.22,1.22,0,0,1-1.21-1.19,1.13,1.13,0,0,1,1.11-1.25,16.36,16.36,0,0,1,3,0,1.15,1.15,0,0,1,1.12,1.25,1.25,1.25,0,0,1-1.23,1.19,12,12,0,0,1-1.47,0"/><path class="cls-3" d="M391.62,173.56a12.52,12.52,0,0,1-1.37,0,1.25,1.25,0,0,1-1.26-1.26,1.18,1.18,0,0,1,1.19-1.21,16.83,16.83,0,0,1,2.84,0,1.22,1.22,0,0,1,1.26,1.25,1.26,1.26,0,0,1-1.29,1.24,12.5,12.5,0,0,1-1.37,0"/></g></g></svg>